<svg width="171" height="48" viewBox="0 0 171 48" fill="none" xmlns="http://www.w3.org/2000/svg">
<path d="M6.36394 47.5311H6.83275V47.0623V44.911V41.6358V36.2003C11.5974 34.212 14.9724 29.4854 14.9724 23.9999C14.9724 18.5156 11.6246 13.7878 6.85912 11.7992L6.83275 0.936362L6.83161 0.468693H6.36394C3.11743 0.468693 0.495825 3.12355 0.495825 6.36394V16.6742V17.143H0.964632H1.75147C5.53525 17.143 8.60836 20.2161 8.60836 23.9999C8.60836 27.7837 5.53525 30.8568 1.75147 30.8568H0.9375H0.468693V31.3256V41.6358C0.468693 44.8793 3.12048 47.5311 6.36394 47.5311Z" fill="#1276ff" stroke="#1276ff" strokeWidth="0.937615"/>
<mask id="path-2-outside-1_261_11819" maskUnits="userSpaceOnUse" x="20.0669" y="8.93555" width="132" height="30" fill="black">
<rect fill="white" x="20.0669" y="8.93555" width="132" height="30"/>
<path d="M35.0186 23.7466C35.0186 25.003 34.8498 26.1188 34.5123 27.0939C34.1935 28.0503 33.7247 28.866 33.1059 29.5411C32.5058 30.2161 31.7651 30.7318 30.8837 31.0881C30.0211 31.4257 29.0554 31.5944 27.9865 31.5944C26.9926 31.5944 26.0738 31.4257 25.2299 31.0881C24.386 30.7318 23.6547 30.2161 23.0359 29.5411C22.4171 28.866 21.9295 28.0503 21.5732 27.0939C21.2357 26.1188 21.0669 25.003 21.0669 23.7466C21.0669 22.0777 21.3482 20.6712 21.9107 19.5273C22.4733 18.3647 23.2797 17.4833 24.3298 16.8833C25.3799 16.2644 26.6269 15.955 28.0709 15.955C29.4398 15.955 30.6399 16.2644 31.6713 16.8833C32.7214 17.4833 33.5372 18.3647 34.1185 19.5273C34.7186 20.6712 35.0186 22.0777 35.0186 23.7466ZM23.6266 23.7466C23.6266 24.928 23.7766 25.9594 24.0766 26.8407C24.3954 27.7033 24.883 28.369 25.5393 28.8379C26.1956 29.3067 27.0301 29.5411 28.0427 29.5411C29.0554 29.5411 29.8898 29.3067 30.5462 28.8379C31.2025 28.369 31.6807 27.7033 31.9807 26.8407C32.2995 25.9594 32.4589 24.928 32.4589 23.7466C32.4589 22.5465 32.2995 21.5245 31.9807 20.6806C31.6619 19.8368 31.1744 19.1898 30.518 18.7397C29.8805 18.2709 29.046 18.0365 28.0146 18.0365C26.4769 18.0365 25.3612 18.5428 24.6673 19.5555C23.9735 20.5681 23.6266 21.9651 23.6266 23.7466Z"/>
<path d="M51.5432 16.2363V31.3132H49.5179L49.1523 29.316H49.0397C48.721 29.8411 48.3084 30.2724 47.8021 30.6099C47.2958 30.9475 46.7426 31.1913 46.1425 31.3413C45.5424 31.5101 44.9142 31.5944 44.2579 31.5944C43.0578 31.5944 42.0451 31.4069 41.22 31.0319C40.4137 30.6381 39.8042 30.038 39.3917 29.2317C38.9791 28.4253 38.7729 27.3846 38.7729 26.1094V16.2363H41.2763V25.9406C41.2763 27.1408 41.5482 28.0409 42.092 28.641C42.6358 29.241 43.4797 29.5411 44.6236 29.5411C45.7487 29.5411 46.6301 29.3348 47.2676 28.9222C47.924 28.4909 48.3834 27.8721 48.6459 27.0658C48.9272 26.2407 49.0679 25.2468 49.0679 24.0841V16.2363H51.5432Z"/>
<path d="M63.3617 15.955C63.643 15.955 63.943 15.9738 64.2618 16.0113C64.5994 16.03 64.89 16.0675 65.1338 16.1238L64.8244 18.4022C64.5806 18.3459 64.3087 18.2991 64.0087 18.2616C63.7274 18.2241 63.4555 18.2053 63.193 18.2053C62.6116 18.2053 62.0584 18.3272 61.5334 18.571C61.0083 18.8148 60.5395 19.1617 60.127 19.6117C59.7144 20.043 59.3862 20.5681 59.1425 21.1869C58.9174 21.8057 58.8049 22.4996 58.8049 23.2684V31.3132H56.3296V16.2363H58.3549L58.6361 18.9929H58.7487C59.0675 18.4303 59.4519 17.924 59.9019 17.474C60.352 17.0052 60.8677 16.6395 61.449 16.377C62.0303 16.0957 62.6679 15.955 63.3617 15.955Z"/>
<path d="M74.0248 11.2295C75.6938 11.2295 77.0908 11.3888 78.216 11.7076C79.3598 12.0264 80.2131 12.5515 80.7756 13.2828C81.357 14.0142 81.6476 14.9893 81.6476 16.2082C81.6476 16.9958 81.4976 17.699 81.1976 18.3178C80.9163 18.9179 80.485 19.4242 79.9037 19.8368C79.3411 20.2306 78.6473 20.5025 77.8222 20.6525V20.7931C78.666 20.9244 79.4255 21.1682 80.1006 21.5245C80.7944 21.8808 81.3382 22.3871 81.732 23.0434C82.1258 23.6997 82.3227 24.553 82.3227 25.6031C82.3227 26.822 82.0414 27.8627 81.4789 28.7253C80.9163 29.5692 80.1099 30.2161 79.0598 30.6662C78.0284 31.0975 76.7908 31.3132 75.3469 31.3132H68.2866V11.2295H74.0248ZM74.5311 19.7805C76.2563 19.7805 77.4377 19.5086 78.0753 18.9648C78.7129 18.4022 79.0317 17.5771 79.0317 16.4895C79.0317 15.3831 78.6379 14.5955 77.8503 14.1267C77.0814 13.6391 75.8438 13.3953 74.1373 13.3953H70.8182V19.7805H74.5311ZM70.8182 21.8901V29.1754H74.8687C76.6501 29.1754 77.8878 28.8285 78.5816 28.1346C79.2755 27.4408 79.6224 26.5313 79.6224 25.4062C79.6224 24.6936 79.463 24.0748 79.1442 23.5497C78.8442 23.0246 78.3285 22.6215 77.5971 22.3402C76.8845 22.0401 75.9094 21.8901 74.6718 21.8901H70.8182Z"/>
<path d="M98.8451 16.2363V31.3132H96.8198L96.4542 29.316H96.3417C96.0229 29.8411 95.6103 30.2724 95.104 30.6099C94.5977 30.9475 94.0445 31.1913 93.4444 31.3413C92.8444 31.5101 92.2161 31.5944 91.5598 31.5944C90.3597 31.5944 89.347 31.4069 88.5219 31.0319C87.7156 30.6381 87.1061 30.038 86.6936 29.2317C86.2811 28.4253 86.0748 27.3846 86.0748 26.1094V16.2363H88.5782V25.9406C88.5782 27.1408 88.8501 28.0409 89.3939 28.641C89.9377 29.241 90.7816 29.5411 91.9255 29.5411C93.0506 29.5411 93.932 29.3348 94.5696 28.9222C95.2259 28.4909 95.6853 27.8721 95.9479 27.0658C96.2291 26.2407 96.3698 25.2468 96.3698 24.0841V16.2363H98.8451Z"/>
<path d="M108.976 31.5944C107.101 31.5944 105.601 30.9475 104.475 29.6536C103.35 28.3409 102.788 26.3907 102.788 23.8029C102.788 21.215 103.35 19.2648 104.475 17.9522C105.619 16.6207 107.129 15.955 109.004 15.955C109.792 15.955 110.476 16.0582 111.057 16.2644C111.639 16.452 112.145 16.7145 112.576 17.052C113.008 17.3896 113.373 17.7646 113.673 18.1772H113.842C113.823 17.9334 113.786 17.5771 113.73 17.1083C113.692 16.6207 113.673 16.2363 113.673 15.955V9.93555H116.149V31.3132H114.152L113.786 29.2879H113.673C113.373 29.7192 113.008 30.113 112.576 30.4693C112.145 30.8068 111.629 31.0788 111.029 31.285C110.448 31.4913 109.764 31.5944 108.976 31.5944ZM109.37 29.5411C110.964 29.5411 112.079 29.1098 112.717 28.2472C113.373 27.3658 113.701 26.0438 113.701 24.281V23.831C113.701 21.9558 113.392 20.5212 112.773 19.5273C112.154 18.5147 111.011 18.0084 109.342 18.0084C108.01 18.0084 107.007 18.5428 106.332 19.6117C105.676 20.6619 105.347 22.0777 105.347 23.8591C105.347 25.6593 105.676 27.0564 106.332 28.0503C107.007 29.0441 108.02 29.5411 109.37 29.5411Z"/>
<path d="M126.282 31.5944C124.406 31.5944 122.906 30.9475 121.781 29.6536C120.656 28.3409 120.093 26.3907 120.093 23.8029C120.093 21.215 120.656 19.2648 121.781 17.9522C122.925 16.6207 124.434 15.955 126.31 15.955C127.097 15.955 127.782 16.0582 128.363 16.2644C128.944 16.452 129.451 16.7145 129.882 17.052C130.313 17.3896 130.679 17.7646 130.979 18.1772H131.148C131.129 17.9334 131.091 17.5771 131.035 17.1083C130.998 16.6207 130.979 16.2363 130.979 15.955V9.93555H133.454V31.3132H131.457L131.091 29.2879H130.979C130.679 29.7192 130.313 30.113 129.882 30.4693C129.451 30.8068 128.935 31.0788 128.335 31.285C127.754 31.4913 127.069 31.5944 126.282 31.5944ZM126.675 29.5411C128.269 29.5411 129.385 29.1098 130.023 28.2472C130.679 27.3658 131.007 26.0438 131.007 24.281V23.831C131.007 21.9558 130.698 20.5212 130.079 19.5273C129.46 18.5147 128.316 18.0084 126.647 18.0084C125.316 18.0084 124.313 18.5428 123.637 19.6117C122.981 20.6619 122.653 22.0777 122.653 23.8591C122.653 25.6593 122.981 27.0564 123.637 28.0503C124.313 29.0441 125.325 29.5411 126.675 29.5411Z"/>
<path d="M135.88 16.2363H138.524L141.787 24.8155C141.974 25.3218 142.143 25.8094 142.293 26.2782C142.462 26.747 142.612 27.2064 142.743 27.6565C142.874 28.0878 142.978 28.5097 143.053 28.9222H143.165C143.278 28.4534 143.456 27.844 143.7 27.0939C143.943 26.325 144.197 25.5562 144.459 24.7874L147.525 16.2363H150.197L143.7 33.3947C143.343 34.3323 142.921 35.148 142.434 35.8418C141.965 36.5544 141.384 37.0982 140.69 37.4733C140.015 37.8671 139.19 38.064 138.215 38.064C137.764 38.064 137.371 38.0359 137.033 37.9796C136.696 37.9421 136.405 37.8952 136.161 37.839V35.87C136.367 35.9075 136.611 35.945 136.893 35.9825C137.193 36.02 137.502 36.0387 137.821 36.0387C138.402 36.0387 138.899 35.9262 139.312 35.7012C139.743 35.4949 140.109 35.1855 140.409 34.773C140.709 34.3792 140.962 33.9103 141.168 33.3665L141.956 31.3694L135.88 16.2363Z"/>
</mask>
<path d="M35.0186 23.7466C35.0186 25.003 34.8498 26.1188 34.5123 27.0939C34.1935 28.0503 33.7247 28.866 33.1059 29.5411C32.5058 30.2161 31.7651 30.7318 30.8837 31.0881C30.0211 31.4257 29.0554 31.5944 27.9865 31.5944C26.9926 31.5944 26.0738 31.4257 25.2299 31.0881C24.386 30.7318 23.6547 30.2161 23.0359 29.5411C22.4171 28.866 21.9295 28.0503 21.5732 27.0939C21.2357 26.1188 21.0669 25.003 21.0669 23.7466C21.0669 22.0777 21.3482 20.6712 21.9107 19.5273C22.4733 18.3647 23.2797 17.4833 24.3298 16.8833C25.3799 16.2644 26.6269 15.955 28.0709 15.955C29.4398 15.955 30.6399 16.2644 31.6713 16.8833C32.7214 17.4833 33.5372 18.3647 34.1185 19.5273C34.7186 20.6712 35.0186 22.0777 35.0186 23.7466ZM23.6266 23.7466C23.6266 24.928 23.7766 25.9594 24.0766 26.8407C24.3954 27.7033 24.883 28.369 25.5393 28.8379C26.1956 29.3067 27.0301 29.5411 28.0427 29.5411C29.0554 29.5411 29.8898 29.3067 30.5462 28.8379C31.2025 28.369 31.6807 27.7033 31.9807 26.8407C32.2995 25.9594 32.4589 24.928 32.4589 23.7466C32.4589 22.5465 32.2995 21.5245 31.9807 20.6806C31.6619 19.8368 31.1744 19.1898 30.518 18.7397C29.8805 18.2709 29.046 18.0365 28.0146 18.0365C26.4769 18.0365 25.3612 18.5428 24.6673 19.5555C23.9735 20.5681 23.6266 21.9651 23.6266 23.7466Z" fill="#010101"/>
<path d="M51.5432 16.2363V31.3132H49.5179L49.1523 29.316H49.0397C48.721 29.8411 48.3084 30.2724 47.8021 30.6099C47.2958 30.9475 46.7426 31.1913 46.1425 31.3413C45.5424 31.5101 44.9142 31.5944 44.2579 31.5944C43.0578 31.5944 42.0451 31.4069 41.22 31.0319C40.4137 30.6381 39.8042 30.038 39.3917 29.2317C38.9791 28.4253 38.7729 27.3846 38.7729 26.1094V16.2363H41.2763V25.9406C41.2763 27.1408 41.5482 28.0409 42.092 28.641C42.6358 29.241 43.4797 29.5411 44.6236 29.5411C45.7487 29.5411 46.6301 29.3348 47.2676 28.9222C47.924 28.4909 48.3834 27.8721 48.6459 27.0658C48.9272 26.2407 49.0679 25.2468 49.0679 24.0841V16.2363H51.5432Z" fill="#010101"/>
<path d="M63.3617 15.955C63.643 15.955 63.943 15.9738 64.2618 16.0113C64.5994 16.03 64.89 16.0675 65.1338 16.1238L64.8244 18.4022C64.5806 18.3459 64.3087 18.2991 64.0087 18.2616C63.7274 18.2241 63.4555 18.2053 63.193 18.2053C62.6116 18.2053 62.0584 18.3272 61.5334 18.571C61.0083 18.8148 60.5395 19.1617 60.127 19.6117C59.7144 20.043 59.3862 20.5681 59.1425 21.1869C58.9174 21.8057 58.8049 22.4996 58.8049 23.2684V31.3132H56.3296V16.2363H58.3549L58.6361 18.9929H58.7487C59.0675 18.4303 59.4519 17.924 59.9019 17.474C60.352 17.0052 60.8677 16.6395 61.449 16.377C62.0303 16.0957 62.6679 15.955 63.3617 15.955Z" fill="#010101"/>
<path d="M74.0248 11.2295C75.6938 11.2295 77.0908 11.3888 78.216 11.7076C79.3598 12.0264 80.2131 12.5515 80.7756 13.2828C81.357 14.0142 81.6476 14.9893 81.6476 16.2082C81.6476 16.9958 81.4976 17.699 81.1976 18.3178C80.9163 18.9179 80.485 19.4242 79.9037 19.8368C79.3411 20.2306 78.6473 20.5025 77.8222 20.6525V20.7931C78.666 20.9244 79.4255 21.1682 80.1006 21.5245C80.7944 21.8808 81.3382 22.3871 81.732 23.0434C82.1258 23.6997 82.3227 24.553 82.3227 25.6031C82.3227 26.822 82.0414 27.8627 81.4789 28.7253C80.9163 29.5692 80.1099 30.2161 79.0598 30.6662C78.0284 31.0975 76.7908 31.3132 75.3469 31.3132H68.2866V11.2295H74.0248ZM74.5311 19.7805C76.2563 19.7805 77.4377 19.5086 78.0753 18.9648C78.7129 18.4022 79.0317 17.5771 79.0317 16.4895C79.0317 15.3831 78.6379 14.5955 77.8503 14.1267C77.0814 13.6391 75.8438 13.3953 74.1373 13.3953H70.8182V19.7805H74.5311ZM70.8182 21.8901V29.1754H74.8687C76.6501 29.1754 77.8878 28.8285 78.5816 28.1346C79.2755 27.4408 79.6224 26.5313 79.6224 25.4062C79.6224 24.6936 79.463 24.0748 79.1442 23.5497C78.8442 23.0246 78.3285 22.6215 77.5971 22.3402C76.8845 22.0401 75.9094 21.8901 74.6718 21.8901H70.8182Z" fill="#010101"/>
<path d="M98.8451 16.2363V31.3132H96.8198L96.4542 29.316H96.3417C96.0229 29.8411 95.6103 30.2724 95.104 30.6099C94.5977 30.9475 94.0445 31.1913 93.4444 31.3413C92.8444 31.5101 92.2161 31.5944 91.5598 31.5944C90.3597 31.5944 89.347 31.4069 88.5219 31.0319C87.7156 30.6381 87.1061 30.038 86.6936 29.2317C86.2811 28.4253 86.0748 27.3846 86.0748 26.1094V16.2363H88.5782V25.9406C88.5782 27.1408 88.8501 28.0409 89.3939 28.641C89.9377 29.241 90.7816 29.5411 91.9255 29.5411C93.0506 29.5411 93.932 29.3348 94.5696 28.9222C95.2259 28.4909 95.6853 27.8721 95.9479 27.0658C96.2291 26.2407 96.3698 25.2468 96.3698 24.0841V16.2363H98.8451Z" fill="#010101"/>
<path d="M108.976 31.5944C107.101 31.5944 105.601 30.9475 104.475 29.6536C103.35 28.3409 102.788 26.3907 102.788 23.8029C102.788 21.215 103.35 19.2648 104.475 17.9522C105.619 16.6207 107.129 15.955 109.004 15.955C109.792 15.955 110.476 16.0582 111.057 16.2644C111.639 16.452 112.145 16.7145 112.576 17.052C113.008 17.3896 113.373 17.7646 113.673 18.1772H113.842C113.823 17.9334 113.786 17.5771 113.73 17.1083C113.692 16.6207 113.673 16.2363 113.673 15.955V9.93555H116.149V31.3132H114.152L113.786 29.2879H113.673C113.373 29.7192 113.008 30.113 112.576 30.4693C112.145 30.8068 111.629 31.0788 111.029 31.285C110.448 31.4913 109.764 31.5944 108.976 31.5944ZM109.37 29.5411C110.964 29.5411 112.079 29.1098 112.717 28.2472C113.373 27.3658 113.701 26.0438 113.701 24.281V23.831C113.701 21.9558 113.392 20.5212 112.773 19.5273C112.154 18.5147 111.011 18.0084 109.342 18.0084C108.01 18.0084 107.007 18.5428 106.332 19.6117C105.676 20.6619 105.347 22.0777 105.347 23.8591C105.347 25.6593 105.676 27.0564 106.332 28.0503C107.007 29.0441 108.02 29.5411 109.37 29.5411Z" fill="#010101"/>
<path d="M126.282 31.5944C124.406 31.5944 122.906 30.9475 121.781 29.6536C120.656 28.3409 120.093 26.3907 120.093 23.8029C120.093 21.215 120.656 19.2648 121.781 17.9522C122.925 16.6207 124.434 15.955 126.31 15.955C127.097 15.955 127.782 16.0582 128.363 16.2644C128.944 16.452 129.451 16.7145 129.882 17.052C130.313 17.3896 130.679 17.7646 130.979 18.1772H131.148C131.129 17.9334 131.091 17.5771 131.035 17.1083C130.998 16.6207 130.979 16.2363 130.979 15.955V9.93555H133.454V31.3132H131.457L131.091 29.2879H130.979C130.679 29.7192 130.313 30.113 129.882 30.4693C129.451 30.8068 128.935 31.0788 128.335 31.285C127.754 31.4913 127.069 31.5944 126.282 31.5944ZM126.675 29.5411C128.269 29.5411 129.385 29.1098 130.023 28.2472C130.679 27.3658 131.007 26.0438 131.007 24.281V23.831C131.007 21.9558 130.698 20.5212 130.079 19.5273C129.46 18.5147 128.316 18.0084 126.647 18.0084C125.316 18.0084 124.313 18.5428 123.637 19.6117C122.981 20.6619 122.653 22.0777 122.653 23.8591C122.653 25.6593 122.981 27.0564 123.637 28.0503C124.313 29.0441 125.325 29.5411 126.675 29.5411Z" fill="#010101"/>
<path d="M135.88 16.2363H138.524L141.787 24.8155C141.974 25.3218 142.143 25.8094 142.293 26.2782C142.462 26.747 142.612 27.2064 142.743 27.6565C142.874 28.0878 142.978 28.5097 143.053 28.9222H143.165C143.278 28.4534 143.456 27.844 143.7 27.0939C143.943 26.325 144.197 25.5562 144.459 24.7874L147.525 16.2363H150.197L143.7 33.3947C143.343 34.3323 142.921 35.148 142.434 35.8418C141.965 36.5544 141.384 37.0982 140.69 37.4733C140.015 37.8671 139.19 38.064 138.215 38.064C137.764 38.064 137.371 38.0359 137.033 37.9796C136.696 37.9421 136.405 37.8952 136.161 37.839V35.87C136.367 35.9075 136.611 35.945 136.893 35.9825C137.193 36.02 137.502 36.0387 137.821 36.0387C138.402 36.0387 138.899 35.9262 139.312 35.7012C139.743 35.4949 140.109 35.1855 140.409 34.773C140.709 34.3792 140.962 33.9103 141.168 33.3665L141.956 31.3694L135.88 16.2363Z" fill="#010101"/>
<path d="M35.0186 23.7466C35.0186 25.003 34.8498 26.1188 34.5123 27.0939C34.1935 28.0503 33.7247 28.866 33.1059 29.5411C32.5058 30.2161 31.7651 30.7318 30.8837 31.0881C30.0211 31.4257 29.0554 31.5944 27.9865 31.5944C26.9926 31.5944 26.0738 31.4257 25.2299 31.0881C24.386 30.7318 23.6547 30.2161 23.0359 29.5411C22.4171 28.866 21.9295 28.0503 21.5732 27.0939C21.2357 26.1188 21.0669 25.003 21.0669 23.7466C21.0669 22.0777 21.3482 20.6712 21.9107 19.5273C22.4733 18.3647 23.2797 17.4833 24.3298 16.8833C25.3799 16.2644 26.6269 15.955 28.0709 15.955C29.4398 15.955 30.6399 16.2644 31.6713 16.8833C32.7214 17.4833 33.5372 18.3647 34.1185 19.5273C34.7186 20.6712 35.0186 22.0777 35.0186 23.7466ZM23.6266 23.7466C23.6266 24.928 23.7766 25.9594 24.0766 26.8407C24.3954 27.7033 24.883 28.369 25.5393 28.8379C26.1956 29.3067 27.0301 29.5411 28.0427 29.5411C29.0554 29.5411 29.8898 29.3067 30.5462 28.8379C31.2025 28.369 31.6807 27.7033 31.9807 26.8407C32.2995 25.9594 32.4589 24.928 32.4589 23.7466C32.4589 22.5465 32.2995 21.5245 31.9807 20.6806C31.6619 19.8368 31.1744 19.1898 30.518 18.7397C29.8805 18.2709 29.046 18.0365 28.0146 18.0365C26.4769 18.0365 25.3612 18.5428 24.6673 19.5555C23.9735 20.5681 23.6266 21.9651 23.6266 23.7466Z" stroke="#010101" strokeWidth="1.5" mask="url(#path-2-outside-1_261_11819)"/>
<path d="M51.5432 16.2363V31.3132H49.5179L49.1523 29.316H49.0397C48.721 29.8411 48.3084 30.2724 47.8021 30.6099C47.2958 30.9475 46.7426 31.1913 46.1425 31.3413C45.5424 31.5101 44.9142 31.5944 44.2579 31.5944C43.0578 31.5944 42.0451 31.4069 41.22 31.0319C40.4137 30.6381 39.8042 30.038 39.3917 29.2317C38.9791 28.4253 38.7729 27.3846 38.7729 26.1094V16.2363H41.2763V25.9406C41.2763 27.1408 41.5482 28.0409 42.092 28.641C42.6358 29.241 43.4797 29.5411 44.6236 29.5411C45.7487 29.5411 46.6301 29.3348 47.2676 28.9222C47.924 28.4909 48.3834 27.8721 48.6459 27.0658C48.9272 26.2407 49.0679 25.2468 49.0679 24.0841V16.2363H51.5432Z" stroke="#010101" strokeWidth="1.5" mask="url(#path-2-outside-1_261_11819)"/>
<path d="M63.3617 15.955C63.643 15.955 63.943 15.9738 64.2618 16.0113C64.5994 16.03 64.89 16.0675 65.1338 16.1238L64.8244 18.4022C64.5806 18.3459 64.3087 18.2991 64.0087 18.2616C63.7274 18.2241 63.4555 18.2053 63.193 18.2053C62.6116 18.2053 62.0584 18.3272 61.5334 18.571C61.0083 18.8148 60.5395 19.1617 60.127 19.6117C59.7144 20.043 59.3862 20.5681 59.1425 21.1869C58.9174 21.8057 58.8049 22.4996 58.8049 23.2684V31.3132H56.3296V16.2363H58.3549L58.6361 18.9929H58.7487C59.0675 18.4303 59.4519 17.924 59.9019 17.474C60.352 17.0052 60.8677 16.6395 61.449 16.377C62.0303 16.0957 62.6679 15.955 63.3617 15.955Z" stroke="#010101" strokeWidth="1.5" mask="url(#path-2-outside-1_261_11819)"/>
<path d="M74.0248 11.2295C75.6938 11.2295 77.0908 11.3888 78.216 11.7076C79.3598 12.0264 80.2131 12.5515 80.7756 13.2828C81.357 14.0142 81.6476 14.9893 81.6476 16.2082C81.6476 16.9958 81.4976 17.699 81.1976 18.3178C80.9163 18.9179 80.485 19.4242 79.9037 19.8368C79.3411 20.2306 78.6473 20.5025 77.8222 20.6525V20.7931C78.666 20.9244 79.4255 21.1682 80.1006 21.5245C80.7944 21.8808 81.3382 22.3871 81.732 23.0434C82.1258 23.6997 82.3227 24.553 82.3227 25.6031C82.3227 26.822 82.0414 27.8627 81.4789 28.7253C80.9163 29.5692 80.1099 30.2161 79.0598 30.6662C78.0284 31.0975 76.7908 31.3132 75.3469 31.3132H68.2866V11.2295H74.0248ZM74.5311 19.7805C76.2563 19.7805 77.4377 19.5086 78.0753 18.9648C78.7129 18.4022 79.0317 17.5771 79.0317 16.4895C79.0317 15.3831 78.6379 14.5955 77.8503 14.1267C77.0814 13.6391 75.8438 13.3953 74.1373 13.3953H70.8182V19.7805H74.5311ZM70.8182 21.8901V29.1754H74.8687C76.6501 29.1754 77.8878 28.8285 78.5816 28.1346C79.2755 27.4408 79.6224 26.5313 79.6224 25.4062C79.6224 24.6936 79.463 24.0748 79.1442 23.5497C78.8442 23.0246 78.3285 22.6215 77.5971 22.3402C76.8845 22.0401 75.9094 21.8901 74.6718 21.8901H70.8182Z" stroke="#010101" strokeWidth="1.5" mask="url(#path-2-outside-1_261_11819)"/>
<path d="M98.8451 16.2363V31.3132H96.8198L96.4542 29.316H96.3417C96.0229 29.8411 95.6103 30.2724 95.104 30.6099C94.5977 30.9475 94.0445 31.1913 93.4444 31.3413C92.8444 31.5101 92.2161 31.5944 91.5598 31.5944C90.3597 31.5944 89.347 31.4069 88.5219 31.0319C87.7156 30.6381 87.1061 30.038 86.6936 29.2317C86.2811 28.4253 86.0748 27.3846 86.0748 26.1094V16.2363H88.5782V25.9406C88.5782 27.1408 88.8501 28.0409 89.3939 28.641C89.9377 29.241 90.7816 29.5411 91.9255 29.5411C93.0506 29.5411 93.932 29.3348 94.5696 28.9222C95.2259 28.4909 95.6853 27.8721 95.9479 27.0658C96.2291 26.2407 96.3698 25.2468 96.3698 24.0841V16.2363H98.8451Z" stroke="#010101" strokeWidth="1.5" mask="url(#path-2-outside-1_261_11819)"/>
<path d="M108.976 31.5944C107.101 31.5944 105.601 30.9475 104.475 29.6536C103.35 28.3409 102.788 26.3907 102.788 23.8029C102.788 21.215 103.35 19.2648 104.475 17.9522C105.619 16.6207 107.129 15.955 109.004 15.955C109.792 15.955 110.476 16.0582 111.057 16.2644C111.639 16.452 112.145 16.7145 112.576 17.052C113.008 17.3896 113.373 17.7646 113.673 18.1772H113.842C113.823 17.9334 113.786 17.5771 113.73 17.1083C113.692 16.6207 113.673 16.2363 113.673 15.955V9.93555H116.149V31.3132H114.152L113.786 29.2879H113.673C113.373 29.7192 113.008 30.113 112.576 30.4693C112.145 30.8068 111.629 31.0788 111.029 31.285C110.448 31.4913 109.764 31.5944 108.976 31.5944ZM109.37 29.5411C110.964 29.5411 112.079 29.1098 112.717 28.2472C113.373 27.3658 113.701 26.0438 113.701 24.281V23.831C113.701 21.9558 113.392 20.5212 112.773 19.5273C112.154 18.5147 111.011 18.0084 109.342 18.0084C108.01 18.0084 107.007 18.5428 106.332 19.6117C105.676 20.6619 105.347 22.0777 105.347 23.8591C105.347 25.6593 105.676 27.0564 106.332 28.0503C107.007 29.0441 108.02 29.5411 109.37 29.5411Z" stroke="#010101" strokeWidth="1.5" mask="url(#path-2-outside-1_261_11819)"/>
<path d="M126.282 31.5944C124.406 31.5944 122.906 30.9475 121.781 29.6536C120.656 28.3409 120.093 26.3907 120.093 23.8029C120.093 21.215 120.656 19.2648 121.781 17.9522C122.925 16.6207 124.434 15.955 126.31 15.955C127.097 15.955 127.782 16.0582 128.363 16.2644C128.944 16.452 129.451 16.7145 129.882 17.052C130.313 17.3896 130.679 17.7646 130.979 18.1772H131.148C131.129 17.9334 131.091 17.5771 131.035 17.1083C130.998 16.6207 130.979 16.2363 130.979 15.955V9.93555H133.454V31.3132H131.457L131.091 29.2879H130.979C130.679 29.7192 130.313 30.113 129.882 30.4693C129.451 30.8068 128.935 31.0788 128.335 31.285C127.754 31.4913 127.069 31.5944 126.282 31.5944ZM126.675 29.5411C128.269 29.5411 129.385 29.1098 130.023 28.2472C130.679 27.3658 131.007 26.0438 131.007 24.281V23.831C131.007 21.9558 130.698 20.5212 130.079 19.5273C129.46 18.5147 128.316 18.0084 126.647 18.0084C125.316 18.0084 124.313 18.5428 123.637 19.6117C122.981 20.6619 122.653 22.0777 122.653 23.8591C122.653 25.6593 122.981 27.0564 123.637 28.0503C124.313 29.0441 125.325 29.5411 126.675 29.5411Z" stroke="#010101" strokeWidth="1.5" mask="url(#path-2-outside-1_261_11819)"/>
<path d="M135.88 16.2363H138.524L141.787 24.8155C141.974 25.3218 142.143 25.8094 142.293 26.2782C142.462 26.747 142.612 27.2064 142.743 27.6565C142.874 28.0878 142.978 28.5097 143.053 28.9222H143.165C143.278 28.4534 143.456 27.844 143.7 27.0939C143.943 26.325 144.197 25.5562 144.459 24.7874L147.525 16.2363H150.197L143.7 33.3947C143.343 34.3323 142.921 35.148 142.434 35.8418C141.965 36.5544 141.384 37.0982 140.69 37.4733C140.015 37.8671 139.19 38.064 138.215 38.064C137.764 38.064 137.371 38.0359 137.033 37.9796C136.696 37.9421 136.405 37.8952 136.161 37.839V35.87C136.367 35.9075 136.611 35.945 136.893 35.9825C137.193 36.02 137.502 36.0387 137.821 36.0387C138.402 36.0387 138.899 35.9262 139.312 35.7012C139.743 35.4949 140.109 35.1855 140.409 34.773C140.709 34.3792 140.962 33.9103 141.168 33.3665L141.956 31.3694L135.88 16.2363Z" stroke="#010101" strokeWidth="1.5" mask="url(#path-2-outside-1_261_11819)"/>
<path d="M154.042 21.9355V21.3977H154.394C154.63 21.3977 154.809 21.3753 154.932 21.3305C155.067 21.2745 155.179 21.168 155.268 21.0112C155.369 20.8543 155.476 20.6246 155.588 20.3221L159.319 9.93555H160.26L164.025 20.5406C164.114 20.7871 164.204 20.972 164.294 21.0952C164.383 21.2073 164.495 21.2857 164.63 21.3305C164.764 21.3753 164.949 21.3977 165.184 21.3977H165.47V21.9355H161.386V21.3977H161.857C162.226 21.3977 162.478 21.3473 162.613 21.2465C162.747 21.1344 162.815 20.9664 162.815 20.7423C162.815 20.6414 162.798 20.5238 162.764 20.3893C162.731 20.2549 162.691 20.1204 162.647 19.986C162.602 19.8515 162.563 19.7395 162.529 19.6498L161.89 17.8347H157.268L156.647 19.5826C156.613 19.6834 156.574 19.8067 156.529 19.9524C156.484 20.098 156.439 20.2437 156.394 20.3893C156.361 20.5238 156.344 20.6414 156.344 20.7423C156.344 20.9664 156.417 21.1344 156.563 21.2465C156.719 21.3473 156.988 21.3977 157.369 21.3977H157.991V21.9355H154.042ZM157.504 17.1792H161.655L160.495 13.8179C160.394 13.5042 160.282 13.1848 160.159 12.8599C160.047 12.5238 159.941 12.1989 159.84 11.8851C159.75 11.5714 159.672 11.2913 159.605 11.0448C159.56 11.2129 159.504 11.4033 159.436 11.6162C159.38 11.8179 159.313 12.0364 159.235 12.2717C159.168 12.4958 159.089 12.7311 158.999 12.9776C158.921 13.2129 158.843 13.4425 158.764 13.6666L157.504 17.1792Z" fill="black" fill-opacity="0.6"/>
<path d="M166.188 21.9355V21.3977H166.642C166.911 21.3977 167.129 21.3697 167.298 21.3137C167.477 21.2465 167.606 21.1176 167.684 20.9271C167.774 20.7367 167.819 20.451 167.819 20.07V11.8011C167.819 11.4089 167.774 11.1232 167.684 10.944C167.606 10.7535 167.477 10.6302 167.298 10.5742C167.129 10.507 166.911 10.4734 166.642 10.4734H166.188V9.93555H170.575V10.4734H170.138C169.88 10.4734 169.662 10.507 169.482 10.5742C169.303 10.6302 169.169 10.7535 169.079 10.944C169.001 11.1232 168.961 11.4089 168.961 11.8011V20.07C168.961 20.451 169.001 20.7367 169.079 20.9271C169.169 21.1176 169.303 21.2465 169.482 21.3137C169.662 21.3697 169.88 21.3977 170.138 21.3977H170.575V21.9355H166.188Z" fill="black" fill-opacity="0.6"/>
</svg>
