<svg xmlns="http://www.w3.org/2000/svg" width="14.531" height="14.531" viewBox="0 0 14.531 14.531">
  <path id="Icon_awesome-phone" data-name="Icon awesome-phone" d="M.49.649,3.236.015a.638.638,0,0,1,.726.367L5.23,3.339a.632.632,0,0,1-.182.739l-1.6,1.31a9.785,9.785,0,0,0,4.678,4.678l1.31-1.6a.633.633,0,0,1,.739-.182l2.957,1.267a.641.641,0,0,1,.37.729l-.634,2.746a.633.633,0,0,1-.618.491A12.249,12.249,0,0,1,0,1.267.633.633,0,0,1,.49.649Z" transform="translate(0.501 0.514)" fill="#445781" stroke="#445781" stroke-width="1"/>
</svg>
