<svg
                  xmlns="http://www.w3.org/2000/svg"
                  xmlns:xlink="http://www.w3.org/1999/xlink"
                  width="24"
                  height="24"
                  viewBox="0 0 24 24"
                >
                  <defs>
                    <clipPath id="clip-path">
                      <rect
                        id="Rectangle_3086"
                        data-name="Rectangle 3086"
                        width="24"
                        height="24"
                        transform="translate(443 1043)"
                        fill="#fff"
                        stroke="#707070"
                        stroke-width="1"
                        opacity="0.296"
                      />
                    </clipPath>
                    <clipPath id="clip-path-2">
                      <rect
                        id="Rectangle_3042"
                        data-name="Rectangle 3042"
                        width="24"
                        height="24"
                        transform="translate(365 1043)"
                        fill="#fff"
                        stroke="#707070"
                        stroke-width="1"
                        opacity="0.296"
                      />
                    </clipPath>
                  </defs>
                  <g
                    id="Mask_Group_706"
                    data-name="Mask Group 706"
                    transform="translate(-443 -1043)"
                    clip-path="url(#clip-path)"
                  >
                    <g
                      id="icons8-hard-working"
                      transform="translate(445.725 1044.875)"
                    >
                      <path
                        id="Path_14543"
                        data-name="Path 14543"
                        d="M22.739,19.953H12.976a.976.976,0,1,1,0-1.953h9.763a.976.976,0,1,1,0,1.953Z"
                        transform="translate(-8.583 -9.954)"
                        fill="#dfe8f4"
                      />
                      <path
                        id="Path_14544"
                        data-name="Path 14544"
                        d="M23.55,35.322H5l.793-3.069A5.039,5.039,0,0,1,10.77,28h7.008a5.039,5.039,0,0,1,4.978,4.254Z"
                        transform="translate(-5 -15.073)"
                        fill="#586392"
                      />
                      <path
                        id="Path_14545"
                        data-name="Path 14545"
                        d="M18.55,17.2h0a4.952,4.952,0,0,1-4.917-4.362l-.243-2.026A5.2,5.2,0,0,1,18.55,5h0a5.2,5.2,0,0,1,5.16,5.816l-.243,2.026A4.952,4.952,0,0,1,18.55,17.2Z"
                        transform="translate(-9.275 -3.301)"
                        fill="#dfe8f4"
                      />
                      <rect
                        id="Rectangle_3082"
                        data-name="Rectangle 3082"
                        width="13.278"
                        height="1.172"
                        transform="translate(2.636 19.078)"
                        fill="#3a95f7"
                      />
                      <rect
                        id="Rectangle_3083"
                        data-name="Rectangle 3083"
                        width="10.8"
                        height="7.2"
                        transform="translate(4.098 12.835)"
                        fill="#9bc9fa"
                      />
                      <rect
                        id="Rectangle_3084"
                        data-name="Rectangle 3084"
                        width="1.8"
                        height="1.2"
                        transform="translate(2.298 18.835)"
                        fill="#9299b8"
                      />
                      <rect
                        id="Rectangle_3085"
                        data-name="Rectangle 3085"
                        width="1.2"
                        height="1.2"
                        transform="translate(14.899 18.835)"
                        fill="#9299b8"
                      />
                      <path
                        id="Path_14546"
                        data-name="Path 14546"
                        d="M38,11.984v-.016C37.995,11.977,37.991,11.984,38,11.984Z"
                        transform="translate(-21.888 -6.867)"
                        fill="#eb7900"
                      />
                      <path
                        id="Path_14547"
                        data-name="Path 14547"
                        d="M9.992,11.984l-.008-.016C9.994,11.977,10,11.984,9.992,11.984Z"
                        transform="translate(-7.551 -6.867)"
                        fill="#eb7900"
                      />
                      <g
                        id="Group_12348"
                        data-name="Group 12348"
                        transform="translate(8.598 15.235)"
                      >
                        <circle
                          id="Ellipse_438"
                          data-name="Ellipse 438"
                          cx="0.9"
                          cy="0.9"
                          r="0.9"
                          transform="translate(0 0)"
                          fill="#edf5ff"
                        />
                      </g>
                      <path
                        id="Path_14548"
                        data-name="Path 14548"
                        d="M10616.1,2614.7c-.059-.7-.817-2.607,1.623-3.493a5.946,5.946,0,0,0,6.353,0c.475.286,1.786.59,1.875,4.682.585-1.093,3.087-6.475-2.875-8.642a3.023,3.023,0,0,1,1.331-.168c-.466-.29-4.345-1.487-6.558.727-.122.031-4.962.35-1.7,8.391A11.436,11.436,0,0,0,10616.1,2614.7Z"
                        transform="translate(-10611.729 -2606.497)"
                        fill="#586392"
                      />
                      <g
                        id="Mask_Group_689"
                        data-name="Mask Group 689"
                        transform="translate(-339.725 -1014.875)"
                        clip-path="url(#clip-path-2)"
                      >
                        <g
                          id="icons8-note"
                          transform="translate(367.475 1045.475)"
                        >
                          <path
                            id="Path_14525"
                            data-name="Path 14525"
                            d="M18.171,25.05H6V6H25.05V18.171l-3.416,3.41Z"
                            transform="translate(-6 -6)"
                            fill="#ddecff"
                          />
                          <path
                            id="Path_14526"
                            data-name="Path 14526"
                            d="M29,29h6.879L29,35.879Z"
                            transform="translate(-16.829 -16.829)"
                            fill="#586392"
                          />
                          <rect
                            id="Rectangle_3039"
                            data-name="Rectangle 3039"
                            width="13.2"
                            height="1.8"
                            transform="translate(2.925 4.125)"
                            fill="#586392"
                          />
                          <rect
                            id="Rectangle_3040"
                            data-name="Rectangle 3040"
                            width="13.2"
                            height="1.8"
                            transform="translate(2.925 8.325)"
                            fill="#3a95f7"
                          />
                          <rect
                            id="Rectangle_3041"
                            data-name="Rectangle 3041"
                            width="7.8"
                            height="1.8"
                            transform="translate(2.925 12.525)"
                            fill="#3a95f7"
                          />
                        </g>
                      </g>
                    </g>
                  </g>
                </svg>