<svg width="60px" height="60px" xmlns="http://www.w3.org/2000/svg" xmlns:xlink="http://www.w3.org/1999/xlink"  viewBox="0 0 24 24">
  <defs>
    <clipPath id="clip-path">
      <rect id="Rectangle_3006" data-name="Rectangle 3006" width="24" height="24" transform="translate(305 679)" fill="#fff" stroke="#707070" stroke-width="1" opacity="0.296"/>
    </clipPath>
  </defs>
  <g id="Mask_Group_671" data-name="Mask Group 671" transform="translate(-305 -679)" clip-path="url(#clip-path)">
    <g id="icons8-registry-editor" transform="translate(306.2 680.2)">
      <rect id="Rectangle_3004" data-name="Rectangle 3004" width="5.4" height="5.4" transform="translate(0 10.2)" fill="#586392" stroke="#fff" stroke-width="1.3"/>
      <rect id="Rectangle_3005" data-name="Rectangle 3005" width="5.4" height="5.4" transform="translate(5.4 15.6)" fill="#586392" stroke="#fff" stroke-width="1.3"/>
      <g id="Group_12340" data-name="Group 12340" transform="translate(0 0)">
        <path id="Path_14475" data-name="Path 14475" d="M11.4,19.4H6V14h5.4Z" transform="translate(-6 -9.2)" fill="#3a95f7" stroke="#fff" stroke-width="1.3"/>
        <path id="Path_14476" data-name="Path 14476" d="M11.4,37.4H6V32h5.4Z" transform="translate(-6 -16.4)" fill="#586392" stroke="#fff" stroke-width="1.3"/>
        <path id="Path_14477" data-name="Path 14477" d="M29.4,37.4H24V32h5.4Z" transform="translate(-13.2 -16.4)" fill="#3a95f7" stroke="#fff" stroke-width="1.3"/>
        <path id="Path_14478" data-name="Path 14478" d="M20.4,28.4H15V23h5.4Z" transform="translate(-9.6 -12.8)" fill="#3a95f7" stroke="#fff" stroke-width="1.3"/>
        <path id="Path_14479" data-name="Path 14479" d="M38.4,11.4H33V6h5.4Z" transform="translate(-16.8 -6)" fill="#3a95f7" stroke="#fff" stroke-width="1.3"/>
        <path id="Path_14480" data-name="Path 14480" d="M24.773,10.954l-3.818,3.818-3.818-3.818,3.818-3.818Z" transform="translate(-10.454 -6.454)" fill="#586392" stroke="#fff" stroke-width="1.3"/>
        <path id="Path_14481" data-name="Path 14481" d="M37.616,23.1l-5.184,1.513-1.513-5.184L36.1,17.919Z" transform="translate(-15.968 -10.768)" fill="#586392" stroke="#fff" stroke-width="1.3"/>
      </g>
    </g>
  </g>
</svg>