<svg width="60px" height="60px" xmlns="http://www.w3.org/2000/svg" xmlns:xlink="http://www.w3.org/1999/xlink"  viewBox="0 0 24 24">
  <defs>
    <clipPath id="clip-path">
      <rect id="Rectangle_4022" data-name="Rectangle 4022" width="24" height="24" transform="translate(377 677.981)" fill="#fff" stroke="#707070" stroke-width="1" opacity="0.296"/>
    </clipPath>
    <clipPath id="clip-path-2">
      <rect id="Rectangle_4021" data-name="Rectangle 4021" width="27.419" height="27.419" transform="translate(0)" fill="#fff" stroke="#707070" stroke-width="1" opacity="0.601"/>
    </clipPath>
  </defs>
  <g id="Mask_Group_987" data-name="Mask Group 987" transform="translate(-377 -677.981)" clip-path="url(#clip-path)">
    <g id="Mask_Group_986" data-name="Mask Group 986" transform="translate(374.715 676.276)" clip-path="url(#clip-path-2)">
      <g id="icons8-collaboration" transform="translate(3.281 4.746)">
        <path id="Path_15299" data-name="Path 15299" d="M36.207,28.56H31.332a.678.678,0,0,1,0-1.356h4.876a.678.678,0,1,1,0,1.356Z" transform="translate(-16.799 -15.513)" fill="#eef5ff"/>
        <circle id="Ellipse_528" data-name="Ellipse 528" cx="3.164" cy="3.164" r="3.164" transform="translate(9.963 0)" fill="#3a95f7"/>
        <circle id="Ellipse_529" data-name="Ellipse 529" cx="3.164" cy="3.164" r="3.164" transform="translate(5.449 0)" fill="#7e8aa3"/>
        <path id="Path_15300" data-name="Path 15300" d="M36.544,36.616l-.209-1.058A2.806,2.806,0,0,0,33.685,33H29.954a2.806,2.806,0,0,0-2.65,2.558l-.209,1.058Z" transform="translate(-14.849 -18.689)" fill="#3a95f7"/>
        <path id="Path_15301" data-name="Path 15301" d="M34.122,26.777h0a2.691,2.691,0,0,1-2.672-2.371l-.132-1.266a2.825,2.825,0,0,1,2.8-3.161h0a2.825,2.825,0,0,1,2.8,3.161L36.8,24.406A2.692,2.692,0,0,1,34.122,26.777Z" transform="translate(-17.152 -11.554)" fill="#eef5ff"/>
        <path id="Path_15302" data-name="Path 15302" d="M9.449,36.616,9.24,35.558A2.806,2.806,0,0,0,6.59,33H2.859a2.806,2.806,0,0,0-2.65,2.558L0,36.616Z" transform="translate(0 -18.689)" fill="#445781"/>
        <path id="Path_15303" data-name="Path 15303" d="M9.112,28.56H4.237a.678.678,0,0,1,0-1.356H9.113a.678.678,0,1,1,0,1.356Z" transform="translate(-1.95 -15.513)" fill="#eef5ff"/>
        <path id="Path_15304" data-name="Path 15304" d="M7.028,26.777h0a2.691,2.691,0,0,1-2.672-2.371L4.224,23.14a2.825,2.825,0,0,1,2.8-3.161h0a2.825,2.825,0,0,1,2.8,3.161L9.7,24.406A2.693,2.693,0,0,1,7.028,26.777Z" transform="translate(-2.304 -11.554)" fill="#f2f3f6"/>
        <path id="Path_15305" data-name="Path 15305" d="M35.587,19.979a2.8,2.8,0,0,0-1.539.46,1.563,1.563,0,0,0,3.1.014A2.8,2.8,0,0,0,35.587,19.979Z" transform="translate(-18.659 -11.554)" fill="#586392"/>
        <path id="Path_15306" data-name="Path 15306" d="M23.752,7.579a3.152,3.152,0,0,0-.8-1.416,3.166,3.166,0,0,0,0,4.435A3.162,3.162,0,0,0,23.752,7.579Z" transform="translate(-12.079 -5.217)" fill="#afd2f8" opacity="0.492"/>
        <path id="Path_15307" data-name="Path 15307" d="M30.258,16.639l-2.221-1.266,2.207-1.291Z" transform="translate(-15.365 -9.556)" fill="#3a95f7"/>
        <path id="Path_15308" data-name="Path 15308" d="M15.1,16.639l2.221-1.266L15.11,14.082Z" transform="translate(-8.273 -9.556)" fill="#7e8aa3"/>
        <path id="Path_15309" data-name="Path 15309" d="M10615.614,2610.841c-.03-.373-.433-1.381.858-1.85a3.149,3.149,0,0,0,3.364,0c.252.151.944.313.992,2.479.31-.579,1.635-3.428-1.521-4.576a1.6,1.6,0,0,1,.706-.089c-.248-.153-2.3-.787-3.474.385-.064.017-2.626.186-.9,4.443A6.093,6.093,0,0,0,10615.614,2610.841Z" transform="translate(-10613.528 -2598.934)" fill="#445781"/>
        <path id="Path_15310" data-name="Path 15310" d="M10615.614,2610.841c-.03-.373-.433-1.381.858-1.85a3.149,3.149,0,0,0,3.364,0c.252.151.944.313.992,2.479.31-.579,1.635-3.428-1.521-4.576a1.6,1.6,0,0,1,.706-.089c-.248-.153-2.3-.787-3.474.385-.064.017-2.626.186-.9,4.443A6.093,6.093,0,0,0,10615.614,2610.841Z" transform="translate(-10601.188 -2598.934)" fill="#3a95f7"/>
      </g>
    </g>
  </g>
</svg>