<svg xmlns="http://www.w3.org/2000/svg" width="18.106" height="17.87" viewBox="0 0 18.106 17.87">
  <path id="Icon_awesome-facebook-square" data-name="Icon awesome-facebook-square" d="M16.166,2.25H1.94A1.927,1.927,0,0,0,0,4.165V18.205A1.927,1.927,0,0,0,1.94,20.12H7.487V14.044H4.941v-2.86H7.487V9.005a3.513,3.513,0,0,1,3.786-3.848,15.622,15.622,0,0,1,2.244.193V7.783H12.253a1.439,1.439,0,0,0-1.634,1.545v1.857H13.4l-.445,2.86H10.619V20.12h5.547a1.927,1.927,0,0,0,1.94-1.915V4.165A1.927,1.927,0,0,0,16.166,2.25Z" transform="translate(0 -2.25)" fill="#ffffff"/>
</svg>
