<svg xmlns="http://www.w3.org/2000/svg" width="18.106" height="17.87" viewBox="0 0 18.106 17.87">
  <path id="Icon_awesome-linkedin-in" data-name="Icon awesome-linkedin-in" d="M4.053,17.87H.3V5.94H4.053ZM2.174,4.312A2.178,2.178,0,0,1,0,2.146,2.16,2.16,0,0,1,2.174,0,2.16,2.16,0,0,1,4.348,2.146,2.178,2.178,0,0,1,2.174,4.312ZM18.1,17.87H14.356V12.062c0-1.384-.028-3.159-1.952-3.159-1.952,0-2.251,1.5-2.251,3.059V17.87H6.4V5.94H10V7.567h.053A3.954,3.954,0,0,1,13.608,5.64c3.8,0,4.5,2.469,4.5,5.676V17.87Z" transform="translate(0 0)" fill="#ffffff"/>
</svg>
