<svg xmlns="http://www.w3.org/2000/svg" width="20.692" height="16.57" viewBox="0 0 20.692 16.57">
  <path id="Icon_awesome-twitter" data-name="Icon awesome-twitter" d="M18.565,7.51c.013.181.013.362.013.544a11.894,11.894,0,0,1-12.066,11.9A12.109,12.109,0,0,1,0,18.074a8.9,8.9,0,0,0,1.024.052,8.57,8.57,0,0,0,5.265-1.786,4.241,4.241,0,0,1-3.965-2.9,5.422,5.422,0,0,0,.8.065,4.546,4.546,0,0,0,1.116-.142,4.2,4.2,0,0,1-3.4-4.1V9.206a4.317,4.317,0,0,0,1.917.531A4.163,4.163,0,0,1,.867,6.255a4.106,4.106,0,0,1,.578-2.11A12.112,12.112,0,0,0,10.189,8.52a4.657,4.657,0,0,1-.105-.958,4.21,4.21,0,0,1,4.241-4.181,4.259,4.259,0,0,1,3.1,1.32,8.422,8.422,0,0,0,2.692-1.01A4.181,4.181,0,0,1,18.25,6a8.6,8.6,0,0,0,2.442-.647A9.047,9.047,0,0,1,18.565,7.51Z" transform="translate(0 -3.381)" fill="#ffffff"/>
</svg>
