<svg xmlns="http://www.w3.org/2000/svg" width="28.451" height="20.004" viewBox="0 0 28.451 20.004">
  <path id="Icon_awesome-youtube" data-name="Icon awesome-youtube" d="M28.906,7.63A3.575,3.575,0,0,0,26.391,5.1c-2.219-.6-11.115-.6-11.115-.6s-8.9,0-11.115.6A3.575,3.575,0,0,0,1.644,7.63a37.5,37.5,0,0,0-.595,6.892,37.5,37.5,0,0,0,.595,6.892A3.522,3.522,0,0,0,4.16,23.906c2.219.6,11.115.6,11.115.6s8.9,0,11.115-.6a3.522,3.522,0,0,0,2.515-2.491,37.5,37.5,0,0,0,.595-6.892,37.5,37.5,0,0,0-.595-6.892ZM12.365,18.752v-8.46l7.436,4.23-7.436,4.23Z" transform="translate(-1.05 -4.5)" fill="#ffffff"/>
</svg>
